<svg xmlns="http://www.w3.org/2000/svg" viewBox="0 0 512 512">
  <g transform="translate(26.00 120.81) scale(1.2234) translate(0,221) scale(0.1,-0.1)">
    <path d="M1135 2116 c-69 -17 -154 -67 -202 -119 -208 -226 -142 -570 134
-699 123 -58 296 -48 406 22 l44 28 147 -147 c80 -80 146 -150 146 -154 0 -4
-171 -177 -380 -385 -260 -258 -380 -384 -380 -398 0 -25 30 -54 55 -54 11 0
43 23 72 52 l53 52 68 -67 c76 -76 70 -75 132 -4 l24 27 -34 35 -34 35 27 27
27 27 34 -33 c38 -37 50 -35 98 16 l27 28 -64 65 c-35 36 -65 70 -65 75 0 6
95 105 210 220 l210 210 210 -210 c116 -115 210 -214 210 -220 0 -5 -28 -38
-62 -72 l-63 -63 43 -42 42 -42 33 32 c40 38 47 39 76 8 l23 -24 -36 -39 -35
-40 37 -36 c21 -20 42 -37 47 -37 5 0 38 28 72 62 l63 62 53 -52 c29 -29 62
-52 73 -52 25 0 54 30 54 55 0 12 -149 169 -382 402 l-383 383 149 149 148
148 79 -41 c73 -37 87 -40 173 -44 137 -6 232 29 325 120 91 90 131 183 131
309 0 180 -85 316 -248 397 -74 36 -79 37 -187 37 -108 0 -113 -1 -186 -37
-93 -46 -168 -122 -212 -215 -30 -64 -32 -75 -32 -178 0 -100 3 -116 29 -172
16 -35 35 -68 42 -74 8 -6 14 -16 14 -21 0 -11 -290 -298 -301 -298 -4 0 -218
212 -288 285 -2 3 14 39 35 81 39 77 39 77 39 198 0 117 -1 124 -33 189 -93
188 -300 283 -507 233z m261 -117 c73 -34 126 -90 162 -168 21 -45 26 -71 27
-136 0 -71 -4 -88 -33 -147 -60 -123 -169 -192 -302 -192 -137 0 -245 66 -306
185 -22 43 -28 71 -32 141 -4 76 -2 92 21 142 85 186 284 261 463 175z m1199
30 c114 -21 196 -83 247 -187 29 -59 33 -76 33 -147 -1 -93 -28 -165 -90 -233
-45 -51 -138 -98 -209 -107 -111 -14 -248 46 -315 140 -45 62 -63 119 -63 200
0 167 103 296 262 331 71 16 67 16 135 3z"/>
    <path d="M1078 1917 c-35 -27 -87 -96 -88 -117 0 -3 18 -4 40 -2 37 4 44 0 97
-52 l58 -56 -52 -50 c-47 -45 -56 -50 -98 -50 l-47 0 25 -42 c25 -43 98 -108
121 -108 8 0 11 10 8 30 -5 36 23 84 74 124 l36 29 51 -51 c46 -46 51 -56 50
-92 -1 -22 1 -40 5 -40 22 0 88 53 113 90 39 58 37 66 -12 62 -38 -4 -45 0
-90 44 -27 27 -49 52 -49 57 0 5 23 31 51 59 48 47 54 50 95 46 24 -2 44 -1
44 1 0 19 -58 95 -92 120 -52 39 -73 40 -64 6 9 -35 -15 -84 -64 -129 l-42
-40 -55 57 c-51 53 -55 60 -51 97 4 50 -6 51 -64 7z"/>
    <path d="M2377 1924 c-38 -26 -97 -98 -97 -118 0 -7 14 -10 38 -8 35 3 44 -2
96 -49 l57 -52 -53 -54 c-50 -51 -56 -54 -95 -51 -27 2 -43 -1 -43 -8 0 -21
59 -93 97 -118 49 -34 61 -33 55 4 -5 36 23 84 74 124 l37 29 48 -51 c42 -43
49 -56 49 -91 0 -23 4 -41 9 -41 30 0 141 112 141 141 0 5 -19 9 -43 9 -38 0
-48 5 -90 48 -26 26 -47 53 -47 58 0 6 23 33 51 59 45 42 54 47 90 43 21 -2
39 0 39 5 0 39 -106 147 -144 147 -3 0 -6 -18 -6 -41 0 -35 -7 -47 -52 -95
l-52 -55 -50 50 c-46 46 -50 55 -51 96 0 25 -5 45 -10 45 -6 0 -27 -12 -48
-26z"/>
  </g>
</svg>
